<svg width="56" height="64" viewBox="0 0 56 64" fill="none" xmlns="http://www.w3.org/2000/svg">
<path d="M3.25 29.0833H11.5C12.9587 29.0833 14.3576 29.6979 15.3891 30.7919C16.4205 31.8858 17 33.3695 17 34.9166V43.6666C17 45.2137 16.4205 46.6975 15.3891 47.7914C14.3576 48.8854 12.9587 49.5 11.5 49.5H8.75C7.29131 49.5 5.89236 48.8854 4.86091 47.7914C3.82946 46.6975 3.25 45.2137 3.25 43.6666V29.0833ZM3.25 29.0833C3.25 25.6361 3.89018 22.2227 5.13398 19.0379C6.37779 15.8531 8.20086 12.9593 10.4991 10.5218C12.7974 8.08422 15.5258 6.15066 18.5286 4.83148C21.5314 3.51229 24.7498 2.83331 28 2.83331C31.2502 2.83331 34.4686 3.51229 37.4714 4.83148C40.4742 6.15066 43.2026 8.08422 45.5009 10.5218C47.7991 12.9593 49.6222 15.8531 50.866 19.0379C52.1098 22.2227 52.75 25.6361 52.75 29.0833M52.75 29.0833V43.6666M52.75 29.0833H44.5C43.0413 29.0833 41.6424 29.6979 40.6109 30.7919C39.5795 31.8858 39 33.3695 39 34.9166V43.6666C39 45.2137 39.5795 46.6975 40.6109 47.7914C41.6424 48.8854 43.0413 49.5 44.5 49.5H47.25C48.7087 49.5 50.1076 48.8854 51.1391 47.7914C52.1705 46.6975 52.75 45.2137 52.75 43.6666M52.75 43.6666V49.5C52.75 52.5942 51.5911 55.5616 49.5282 57.7496C47.4653 59.9375 44.6674 61.1666 41.75 61.1666H28" stroke="url(#paint0_linear_228_80)" stroke-width="5" stroke-linecap="round" stroke-linejoin="round"/>
<defs>
<linearGradient id="paint0_linear_228_80" x1="28" y1="2.83331" x2="28" y2="61.1666" gradientUnits="userSpaceOnUse">
<stop stop-color="#385D63"/>
<stop offset="1" stop-color="#0B0E0F"/>
</linearGradient>
</defs>
</svg>
