<svg width="40" height="41" viewBox="0 0 40 41" fill="none" xmlns="http://www.w3.org/2000/svg">
<path d="M13.3333 5.06445C14.2174 5.06445 15.0652 5.41564 15.6904 6.04076C16.3155 6.66588 16.6667 7.51373 16.6667 8.39779V18.3978C16.6667 19.2818 16.3155 20.1297 15.6904 20.7548C15.0652 21.3799 14.2174 21.7311 13.3333 21.7311C12.8913 21.7311 12.4674 21.9067 12.1548 22.2193C11.8423 22.5318 11.6667 22.9558 11.6667 23.3978V25.0645C11.6667 25.9485 12.0179 26.7964 12.643 27.4215C13.2681 28.0466 14.1159 28.3978 15 28.3978C15.442 28.3978 15.866 28.5734 16.1785 28.8859C16.4911 29.1985 16.6667 29.6224 16.6667 30.0645V33.3978C16.6667 33.8398 16.4911 34.2637 16.1785 34.5763C15.866 34.8889 15.442 35.0645 15 35.0645C12.3478 35.0645 9.8043 34.0109 7.92893 32.1355C6.05357 30.2602 5 27.7166 5 25.0645V8.39779C5 7.51373 5.35119 6.66588 5.97631 6.04076C6.60143 5.41564 7.44928 5.06445 8.33333 5.06445H13.3333Z" stroke="white" stroke-width="2" stroke-linecap="round" stroke-linejoin="round"/>
<path d="M31.6667 5.06445C32.5507 5.06445 33.3986 5.41564 34.0237 6.04076C34.6488 6.66588 35 7.51373 35 8.39779V18.3978C35 19.2818 34.6488 20.1297 34.0237 20.7548C33.3986 21.3799 32.5507 21.7311 31.6667 21.7311C31.2246 21.7311 30.8007 21.9067 30.4882 22.2193C30.1756 22.5318 30 22.9558 30 23.3978V25.0645C30 25.9485 30.3512 26.7964 30.9763 27.4215C31.6014 28.0466 32.4493 28.3978 33.3333 28.3978C33.7754 28.3978 34.1993 28.5734 34.5118 28.8859C34.8244 29.1985 35 29.6224 35 30.0645V33.3978C35 33.8398 34.8244 34.2637 34.5118 34.5763C34.1993 34.8889 33.7754 35.0645 33.3333 35.0645C30.6812 35.0645 28.1376 34.0109 26.2623 32.1355C24.3869 30.2602 23.3333 27.7166 23.3333 25.0645V8.39779C23.3333 7.51373 23.6845 6.66588 24.3096 6.04076C24.9348 5.41564 25.7826 5.06445 26.6667 5.06445H31.6667Z" stroke="white" stroke-width="2" stroke-linecap="round" stroke-linejoin="round"/>
</svg>
