<svg width="57" height="58" viewBox="0 0 57 58" fill="none" xmlns="http://www.w3.org/2000/svg">
<path d="M2.6438 2.75V49.4167C2.6438 50.9638 3.24916 52.4475 4.32672 53.5415C5.40428 54.6354 6.86576 55.25 8.38966 55.25H54.3565M39.9919 8.58333H45.7377C47.3244 8.58333 48.6106 9.88917 48.6106 11.5V40.6667C48.6106 42.2775 47.3244 43.5833 45.7377 43.5833H39.9919C38.4052 43.5833 37.1189 42.2775 37.1189 40.6667V11.5C37.1189 9.88917 38.4052 8.58333 39.9919 8.58333ZM17.0084 17.3333H22.7543C24.341 17.3333 25.6272 18.6392 25.6272 20.25V40.6667C25.6272 42.2775 24.341 43.5833 22.7543 43.5833H17.0084C15.4218 43.5833 14.1355 42.2775 14.1355 40.6667V20.25C14.1355 18.6392 15.4218 17.3333 17.0084 17.3333Z" stroke="url(#paint0_linear_228_89)" stroke-width="5" stroke-linecap="round" stroke-linejoin="round"/>
<defs>
<linearGradient id="paint0_linear_228_89" x1="28.5002" y1="2.75" x2="28.5002" y2="55.25" gradientUnits="userSpaceOnUse">
<stop stop-color="#385D63"/>
<stop offset="1" stop-color="#0B0E0F"/>
</linearGradient>
</defs>
</svg>
