<svg width="57" height="58" viewBox="0 0 57 58" fill="none" xmlns="http://www.w3.org/2000/svg">
<path d="M2.6438 14.4167V8.58333C2.6438 7.03624 3.24916 5.55251 4.32672 4.45854C5.40428 3.36458 6.86576 2.75 8.38966 2.75H14.1355M42.8648 2.75H48.6106C50.1345 2.75 51.596 3.36458 52.6736 4.45854C53.7511 5.55251 54.3565 7.03624 54.3565 8.58333V14.4167M54.3565 43.5833V49.4167C54.3565 50.9638 53.7511 52.4475 52.6736 53.5415C51.596 54.6354 50.1345 55.25 48.6106 55.25H42.8648M14.1355 55.25H8.38966C6.86576 55.25 5.40428 54.6354 4.32672 53.5415C3.24916 52.4475 2.6438 50.9638 2.6438 49.4167V43.5833" stroke="url(#paint0_linear_243_78)" stroke-width="5" stroke-linecap="round" stroke-linejoin="round"/>
<defs>
<linearGradient id="paint0_linear_243_78" x1="28.5002" y1="2.75" x2="28.5002" y2="55.25" gradientUnits="userSpaceOnUse">
<stop stop-color="#385D63"/>
<stop offset="1" stop-color="#0B0E0F"/>
</linearGradient>
</defs>
</svg>
