<svg width="60" height="61" viewBox="0 0 60 61" fill="none" xmlns="http://www.w3.org/2000/svg">
<path d="M20.0083 29H20.0371M31.5 29H31.5288M42.9917 29H43.0205M19.721 52.3335C25.2042 55.1891 31.5118 55.9625 37.507 54.5145C43.5022 53.0665 48.7909 49.4922 52.42 44.4357C56.0491 39.3792 57.7799 33.1731 57.3006 26.9356C56.8213 20.6982 54.1634 14.8397 49.8058 10.4157C45.4482 5.99179 39.6775 3.29339 33.5336 2.80679C27.3897 2.32019 21.2766 4.07738 16.296 7.76171C11.3153 11.446 7.79462 16.8152 6.3683 22.9017C4.94198 28.9882 5.70385 35.3918 8.51661 40.9585L2.77075 58.1668L19.721 52.3335Z" stroke="url(#paint0_linear_243_83)" stroke-width="5" stroke-linecap="round" stroke-linejoin="round"/>
<defs>
<linearGradient id="paint0_linear_243_83" x1="30.0749" y1="2.72723" x2="30.0749" y2="58.1668" gradientUnits="userSpaceOnUse">
<stop stop-color="#385D63"/>
<stop offset="1" stop-color="#0B0E0F"/>
</linearGradient>
</defs>
</svg>
